<?xml version="1.0" standalone="no"?>
<!DOCTYPE svg PUBLIC "-//W3C//DTD SVG 20010904//EN"
 "http://www.w3.org/TR/2001/REC-SVG-20010904/DTD/svg10.dtd">
<svg version="1.0" xmlns="http://www.w3.org/2000/svg"
 width="1024.000000pt" height="1024.000000pt" viewBox="0 0 1024.000000 1024.000000"
 preserveAspectRatio="xMidYMid meet">

<g transform="translate(0.000000,1024.000000) scale(0.100000,-0.100000)"
fill="#000000" stroke="none">
<path d="M5037 7737 c-316 -623 -1307 -2612 -1526 -3062 -139 -286 -376 -763
-526 -1060 -149 -297 -282 -562 -293 -590 l-22 -50 101 105 c513 538 862 945
1124 1311 108 151 449 658 575 854 35 55 145 226 243 380 99 154 210 328 247
386 37 58 75 118 85 133 9 14 15 26 12 26 -2 0 -51 -72 -108 -160 -180 -278
-290 -444 -306 -460 -16 -16 72 126 318 517 86 136 196 311 244 388 48 77 102
163 119 190 18 28 47 75 66 105 19 30 58 92 87 136 29 45 53 88 53 96 0 22 11
29 26 17 8 -6 -31 80 -85 192 -152 316 -266 585 -301 712 -7 26 -15 47 -19 47
-3 0 -54 -96 -114 -213z"/>
<path d="M5567 6974 c-3 -3 -1 -20 3 -39 10 -46 -11 -145 -56 -253 -36 -89
-196 -395 -279 -536 -32 -54 -45 -86 -41 -101 3 -12 34 -82 70 -156 35 -74
112 -235 170 -359 59 -123 110 -228 114 -232 4 -4 70 8 147 28 252 63 585 109
601 83 7 -12 -129 -147 -236 -232 -63 -51 -284 -201 -358 -245 -31 -17 -27
-27 16 -40 114 -34 428 -296 747 -623 238 -245 784 -837 973 -1055 68 -79 82
-114 27 -65 -33 29 -45 36 -45 28 0 -2 37 -33 83 -69 45 -36 95 -75 110 -88
24 -19 16 1 -55 143 -45 92 -84 165 -85 163 -2 -2 28 -68 66 -147 46 -93 62
-134 46 -116 -13 15 -28 43 -34 62 -9 35 -74 149 -99 174 -7 7 -29 45 -49 85
-20 39 -48 89 -63 111 -65 95 -320 593 -1021 1992 -411 820 -749 1489 -752
1487z"/>
<path d="M5246 6475 c-9 -14 -23 -37 -32 -52 l-16 -28 20 24 c24 29 55 81 49
81 -3 0 -12 -11 -21 -25z"/>
<path d="M5160 6340 c-6 -11 -8 -20 -6 -20 3 0 10 9 16 20 6 11 8 20 6 20 -3
0 -10 -9 -16 -20z"/>
<path d="M5094 6238 c-4 -7 -14 -24 -22 -38 -14 -24 -13 -24 3 -5 20 24 37 55
31 55 -3 0 -8 -6 -12 -12z"/>
<path d="M6085 5310 c-3 -6 1 -7 9 -4 18 7 21 14 7 14 -6 0 -13 -4 -16 -10z"/>
<path d="M5930 5230 c-9 -6 -10 -10 -3 -10 6 0 15 5 18 10 8 12 4 12 -15 0z"/>
<path d="M5884 5204 c-18 -14 -18 -15 4 -4 12 6 22 13 22 15 0 8 -5 6 -26 -11z"/>
<path d="M5610 5190 c-8 -5 -10 -10 -5 -10 6 0 17 5 25 10 8 5 11 10 5 10 -5
0 -17 -5 -25 -10z"/>
<path d="M5631 5179 c-13 -5 -33 -7 -44 -3 -14 4 -17 3 -12 -6 5 -9 2 -10 -14
-5 -11 3 -21 2 -21 -3 0 -6 -10 -8 -22 -4 -16 4 -19 2 -13 -8 5 -9 4 -11 -4
-6 -6 4 -94 -20 -194 -54 -666 -226 -839 -303 -1074 -479 -43 -32 -87 -68 -98
-81 l-20 -24 32 22 c37 26 47 28 39 7 -3 -8 3 -31 14 -50 11 -19 16 -35 12
-35 -4 0 0 -6 9 -13 9 -7 19 -30 22 -52 7 -53 18 -109 23 -114 9 -9 -35 -65
-85 -109 -30 -26 -78 -68 -106 -93 -27 -26 -63 -59 -80 -74 -16 -14 11 3 60
39 547 399 946 662 1408 931 64 37 117 70 117 72 0 2 -4 1 -10 -2 -5 -3 -10
-4 -10 -1 0 3 10 10 21 17 16 8 20 8 14 -1 -4 -6 11 -2 34 9 23 12 41 24 41
26 0 3 -15 -2 -32 -11 -53 -27 -23 -4 52 41 39 23 67 44 64 48 -3 3 -13 3 -22
0 -8 -4 -13 -2 -9 3 3 5 -2 10 -11 11 -9 1 -26 4 -37 7 -11 3 -31 1 -44 -5z"/>
<path d="M5738 5129 c-21 -11 -38 -22 -38 -24 0 -3 18 4 40 15 22 11 40 23 40
25 0 7 0 7 -42 -16z"/>
<path d="M3939 3953 c-13 -16 -12 -17 4 -4 16 13 21 21 13 21 -2 0 -10 -8 -17
-17z"/>
<path d="M7407 3445 c15 -30 29 -53 31 -51 4 5 -46 106 -53 106 -3 0 7 -25 22
-55z"/>
</g>
</svg>
